# xmcd
#
# Track frame offsets:
#	183
#	17938
#	41175
#	68068
#
# Disc length: 1246 seconds
#
# Revision: 5
# Processed by: cddbd v1.5.2PL0 Copyright (c) Steve Scherf et al.
# Submitted via: EasyCDDAExtractor 7.0.5.4
#
DISCID=3204dc04
DTITLE=2nd Nature - Crazy World [CDm '94)
DYEAR=1994
DGENRE=Eurodance
TTITLE0=Crazy World (Single Mix)
TTITLE1=Crazy World (E&M Club Mix)
TTITLE2=Crazy World (RvR Long Version)
TTITLE3=Crazy World (Extended Version)
EXTD=ID3G: 3
EXTT0=
EXTT1=
EXTT2=
EXTT3=
PLAYORDER=
